<svg xmlns="http://www.w3.org/2000/svg" width="442" height="352" viewBox="0 0 442 352" version="1.1"><path d="M 237 80.881 C 237 81.365, 233.642 86.203, 229.538 91.631 C 225.434 97.059, 219.911 104.425, 217.266 108 C 212.832 113.991, 212.532 114.754, 213.434 117.750 C 214.199 120.288, 214.971 121.009, 216.957 121.042 C 218.356 121.066, 228.396 121.874, 239.269 122.838 L 259.037 124.592 260.482 122.387 C 261.804 120.370, 261.543 119.304, 257.415 109.841 C 254.933 104.154, 250.860 95.225, 248.363 90 C 244.022 80.918, 243.672 80.489, 240.411 80.251 C 238.535 80.113, 237 80.397, 237 80.881 M 120.024 131.567 C 117.621 136.350, 114.416 144.963, 112.901 150.705 L 110.146 161.146 113.944 164.944 L 117.742 168.742 138.008 167.121 C 157.976 165.524, 158.288 165.464, 159.183 163.041 C 159.925 161.030, 159.503 159.754, 156.872 156.041 C 155.102 153.543, 150.731 147.225, 147.160 142 C 143.588 136.775, 139.279 130.605, 137.583 128.289 C 135.178 125.004, 133.841 124.066, 131.500 124.025 C 129.850 123.996, 127.576 123.724, 126.447 123.421 C 124.693 122.950, 123.756 124.138, 120.024 131.567 M 283.738 187.478 C 277.994 194.914, 277.977 194.956, 278.605 200.293 C 279.064 204.203, 278.811 206.466, 277.664 208.683 C 276.801 210.352, 274.732 212.283, 273.067 212.972 C 271.401 213.662, 268.992 213.964, 267.712 213.642 C 265.676 213.132, 264.400 214.402, 257.527 223.779 C 253.205 229.676, 246.659 238.550, 242.980 243.500 C 239.300 248.450, 235.544 253.668, 234.631 255.095 C 233.145 257.420, 233.125 258.054, 234.432 261.184 C 235.822 264.511, 236.722 264.999, 253.398 271.475 L 270.905 278.273 274.550 276.543 C 276.923 275.417, 279.326 275.026, 281.437 275.422 C 283.221 275.757, 285.715 277.132, 286.980 278.478 L 289.279 280.926 292.024 278.713 C 293.533 277.496, 297.648 273.125, 301.168 269 C 304.688 264.875, 309.183 259.005, 311.158 255.955 L 314.749 250.409 312.374 247.649 C 310.639 245.632, 310 243.682, 310 240.409 C 310 237.945, 310.693 234.873, 311.539 233.581 C 312.932 231.455, 312.919 230.864, 311.406 227.366 C 310.486 225.240, 306.593 216.750, 302.755 208.500 C 298.916 200.250, 294.364 190.466, 292.638 186.759 L 289.500 180.017 283.738 187.478 M 119.513 227.986 C 118.510 229.094, 117.054 230, 116.278 230 C 115.282 230, 115.062 230.664, 115.532 232.250 C 115.899 233.488, 118.689 239.225, 121.733 245 C 124.776 250.775, 128.207 256.850, 129.359 258.500 C 130.510 260.150, 133.951 264.489, 137.006 268.142 C 140.061 271.795, 146.039 277.741, 150.291 281.355 C 154.544 284.968, 161.202 289.782, 165.088 292.052 C 168.975 294.321, 174.607 297.263, 177.606 298.589 C 180.604 299.915, 183.719 301, 184.529 301 C 185.338 301, 186 300.358, 186 299.573 C 186 298.787, 187.186 297.212, 188.635 296.073 C 190.277 294.781, 192.820 293.974, 195.385 293.931 C 199.432 293.863, 199.627 293.690, 207.196 283.372 L 214.892 272.883 214.317 267.691 C 214.001 264.836, 213.463 262.247, 213.121 261.938 C 212.779 261.629, 205.166 258.507, 196.203 255 C 180.139 248.716, 179.864 248.649, 177.048 250.312 C 175.477 251.241, 172.598 252, 170.651 252 C 168.368 252, 166.133 251.158, 164.354 249.628 C 162.837 248.323, 161.092 245.758, 160.475 243.926 C 159.405 240.749, 158.557 240.286, 141.927 233.808 C 132.342 230.074, 123.788 226.783, 122.918 226.495 C 122.048 226.207, 120.515 226.878, 119.513 227.986" stroke="none" fill="#81d4f7" fill-rule="evenodd"/><path d="M 208.500 67.033 C 204.650 67.452, 198.440 68.515, 194.700 69.395 C 190.961 70.274, 184.134 72.554, 179.529 74.460 C 174.925 76.366, 168.085 79.802, 164.329 82.096 C 160.573 84.390, 154.020 89.164, 149.766 92.706 C 145.513 96.248, 141.117 100.431, 139.998 102.002 C 138.787 103.704, 138.365 105.107, 138.955 105.472 C 139.500 105.809, 140.418 107.839, 140.996 109.984 C 141.967 113.592, 142.363 113.926, 146.273 114.444 C 148.598 114.751, 158.600 115.683, 168.500 116.514 C 178.400 117.345, 187.963 118.217, 189.750 118.450 C 192.191 118.769, 193 118.492, 193 117.337 C 193 116.492, 194.587 114.213, 196.527 112.273 C 199.754 109.046, 200.435 108.789, 204.532 109.251 C 208.965 109.750, 209.046 109.705, 212.683 104.628 C 214.704 101.807, 218.835 96.125, 221.863 92 C 224.891 87.875, 228.683 82.781, 230.288 80.680 C 232.988 77.146, 233.129 76.550, 232.162 72.740 C 231.587 70.474, 231.303 68.319, 231.531 67.950 C 231.759 67.581, 229.192 66.991, 225.826 66.640 C 222.460 66.288, 218.760 66.061, 217.603 66.136 C 216.446 66.210, 212.350 66.614, 208.500 67.033 M 209.694 128.545 C 207.909 130.107, 205.667 131, 203.532 131 C 200.558 131, 199.667 131.711, 195.711 137.250 C 193.256 140.688, 188.258 147.506, 184.605 152.403 C 179.664 159.026, 178.116 161.844, 178.563 163.403 C 178.893 164.556, 179.914 166.116, 180.832 166.869 C 181.749 167.622, 200.050 174.421, 221.500 181.978 C 260.346 195.665, 260.509 195.712, 262.885 193.859 C 264.315 192.744, 266.916 191.993, 269.385 191.984 C 273.348 191.968, 273.690 191.700, 278.625 184.734 C 281.444 180.755, 284.346 176.516, 285.076 175.314 C 286.224 173.419, 286.090 172.418, 284.066 167.814 C 282.782 164.891, 279.234 157.213, 276.182 150.750 C 270.966 139.706, 270.457 139, 267.717 139 C 265.746 139, 263.863 137.995, 261.901 135.894 C 260.306 134.186, 259 132.161, 259 131.394 C 259 130.616, 258.006 129.998, 256.750 129.997 C 255.512 129.995, 247.300 129.335, 238.500 128.531 C 229.700 127.726, 220.250 126.848, 217.500 126.579 C 213.220 126.160, 212.096 126.443, 209.694 128.545 M 278.089 134.784 C 277.185 136.968, 277.242 138.423, 278.354 141.534 C 279.134 143.715, 282.273 150.578, 285.330 156.785 L 290.889 168.069 292.902 165.285 C 294.009 163.753, 298.525 157.550, 302.938 151.500 C 307.351 145.450, 310.970 140.024, 310.981 139.441 C 310.991 138.859, 310.402 137.565, 309.672 136.566 C 308.594 135.092, 305.716 134.496, 294.422 133.407 C 286.765 132.669, 280.217 132.050, 279.871 132.032 C 279.526 132.015, 278.724 133.253, 278.089 134.784 M 231.865 273.117 C 229.662 275.528, 228.434 276.004, 224.365 276.025 C 219.567 276.049, 219.436 276.136, 214.903 282.275 C 212.375 285.699, 208.846 290.589, 207.061 293.143 C 204.368 296.995, 204.001 298.133, 204.907 299.827 C 205.508 300.950, 206 303.023, 206 304.434 L 206 307 218.390 307 C 225.424 307, 234.327 306.327, 238.989 305.443 C 243.505 304.586, 250.417 302.730, 254.350 301.319 C 258.282 299.907, 263.647 297.671, 266.271 296.349 C 270.412 294.262, 270.907 293.694, 270.021 292.038 C 269.459 290.990, 268.996 288.639, 268.992 286.816 L 268.984 283.500 256.242 278.616 C 249.234 275.929, 241.475 272.944, 239 271.983 L 234.500 270.234 231.865 273.117" stroke="none" fill="#bae6fb" fill-rule="evenodd"/><path d="M 238.491 64.383 C 237.221 65.312, 236.600 66.991, 236.600 69.500 C 236.600 72.009, 237.221 73.688, 238.491 74.617 C 239.531 75.378, 241.396 76, 242.634 76 C 243.873 76, 245.587 75, 246.443 73.777 C 247.299 72.555, 248 70.630, 248 69.500 C 248 68.370, 247.299 66.445, 246.443 65.223 C 245.587 64, 243.873 63, 242.634 63 C 241.396 63, 239.531 63.622, 238.491 64.383 M 126.426 109.473 C 125.132 111.447, 124.941 112.803, 125.622 115.177 C 126.113 116.890, 127.230 118.742, 128.103 119.293 C 128.976 119.844, 130.828 120.009, 132.219 119.660 C 133.736 119.279, 135.233 117.851, 135.964 116.087 C 136.940 113.731, 136.914 112.591, 135.833 110.325 C 134.840 108.242, 133.650 107.419, 131.305 107.191 C 128.795 106.948, 127.765 107.430, 126.426 109.473 M 199.455 115.455 C 198.105 116.805, 197 118.634, 197 119.520 C 197 120.406, 197.479 122.027, 198.065 123.122 C 198.651 124.217, 200.114 125.477, 201.315 125.921 C 202.548 126.377, 204.459 126.292, 205.700 125.727 C 206.910 125.175, 208.311 123.547, 208.813 122.107 C 209.315 120.667, 209.362 118.509, 208.919 117.310 C 208.476 116.111, 207.217 114.651, 206.122 114.065 C 205.027 113.479, 203.631 113, 203.020 113 C 202.409 113, 200.805 114.105, 199.455 115.455 M 265.200 123.200 C 264.540 123.860, 264 126.040, 264 128.045 C 264 130.306, 264.694 132.318, 265.829 133.345 C 266.835 134.255, 268.410 135, 269.329 135 C 270.248 135, 271.900 134.100, 273 133 C 274.100 131.900, 275 129.720, 275 128.155 C 275 126.590, 274.177 124.565, 273.171 123.655 C 272.165 122.745, 270.230 122, 268.871 122 C 267.512 122, 265.860 122.540, 265.200 123.200 M 316.073 128.635 C 314.933 130.084, 314 132.009, 314 132.912 C 314 133.816, 314.701 135.555, 315.557 136.777 C 316.561 138.211, 318.150 139, 320.034 139 C 322.043 139, 323.463 138.222, 324.587 136.507 C 325.588 134.980, 325.984 133.071, 325.609 131.577 C 325.272 130.237, 324.291 128.433, 323.427 127.570 C 322.564 126.706, 321.022 126, 320.001 126 C 318.980 126, 317.212 127.186, 316.073 128.635 M 165.174 163.314 C 163.978 164.587, 163 166.768, 163 168.159 C 163 169.551, 163.860 171.468, 164.912 172.420 C 166.041 173.442, 167.982 174.017, 169.654 173.825 C 171.550 173.607, 172.904 172.622, 173.753 170.842 C 174.697 168.863, 174.747 167.465, 173.948 165.363 C 173.358 163.811, 172.341 162.201, 171.687 161.786 C 171.034 161.370, 169.791 161.024, 168.924 161.015 C 168.058 161.007, 166.370 162.042, 165.174 163.314 M 105.315 167.079 C 104.114 167.523, 102.613 168.854, 101.980 170.037 C 101.348 171.219, 101.100 173.264, 101.431 174.580 C 101.761 175.897, 103.094 177.671, 104.393 178.522 C 106.329 179.790, 107.232 179.852, 109.401 178.863 C 110.857 178.200, 112.311 176.609, 112.632 175.329 C 112.954 174.048, 112.954 171.952, 112.632 170.671 C 112.311 169.391, 111.025 167.877, 109.774 167.307 C 108.474 166.715, 106.564 166.617, 105.315 167.079 M 265.828 197.036 C 264.909 197.573, 263.856 199.378, 263.490 201.047 C 263.039 203.098, 263.345 204.878, 264.435 206.541 C 265.538 208.224, 266.968 209, 268.966 209 C 270.850 209, 272.439 208.211, 273.443 206.777 C 274.299 205.555, 275 203.615, 275 202.466 C 275 201.317, 274.082 199.392, 272.961 198.189 C 271.840 196.985, 270.152 196.014, 269.211 196.030 C 268.270 196.047, 266.748 196.500, 265.828 197.036 M 109 215 C 107.900 216.100, 107 218.280, 107 219.845 C 107 221.410, 107.823 223.435, 108.829 224.345 C 109.835 225.255, 111.804 226, 113.206 226 C 114.608 226, 116.289 225.356, 116.942 224.569 C 117.596 223.782, 118.169 221.756, 118.217 220.066 C 118.265 218.377, 117.491 216.095, 116.497 214.997 C 115.503 213.899, 113.860 213, 112.845 213 C 111.830 213, 110.100 213.900, 109 215 M 316.065 235.878 C 315.479 236.973, 315 239.238, 315 240.911 C 315 243.066, 315.741 244.440, 317.541 245.619 C 319.564 246.944, 320.577 247.058, 322.513 246.176 C 323.851 245.567, 325.247 243.865, 325.616 242.394 C 325.985 240.923, 325.877 238.545, 325.375 237.110 C 324.650 235.034, 323.714 234.437, 320.797 234.194 C 317.965 233.957, 316.888 234.340, 316.065 235.878 M 166.596 237.166 C 165.718 238.420, 165 240.370, 165 241.500 C 165 242.630, 165.701 244.555, 166.557 245.777 C 167.421 247.012, 169.168 248, 170.485 248 C 171.790 248, 173.535 247.322, 174.363 246.494 C 175.191 245.666, 176.151 244.098, 176.497 243.010 C 176.842 241.922, 176.531 239.787, 175.805 238.266 C 174.845 236.253, 173.630 235.417, 171.339 235.194 C 168.983 234.965, 167.791 235.460, 166.596 237.166 M 220.655 260.829 C 219.745 261.835, 219 264.015, 219 265.674 C 219 267.333, 219.823 269.435, 220.829 270.345 C 221.835 271.255, 223.565 272, 224.674 272 C 225.783 272, 227.435 271.177, 228.345 270.171 C 229.255 269.165, 230 266.948, 230 265.243 C 230 263.538, 229.293 261.436, 228.429 260.571 C 227.564 259.707, 225.834 259, 224.584 259 C 223.333 259, 221.565 259.823, 220.655 260.829 M 275.035 281.934 C 274.466 282.998, 274 285.223, 274 286.878 C 274 288.853, 274.763 290.421, 276.223 291.443 C 277.445 292.299, 279.020 293, 279.723 293 C 280.425 293, 281.900 292.100, 283 291 C 284.100 289.900, 284.986 287.762, 284.968 286.250 C 284.951 284.738, 284.339 282.712, 283.608 281.750 C 282.845 280.744, 280.959 280, 279.175 280 C 277.129 280, 275.717 280.660, 275.035 281.934 M 191.745 299.750 C 190.885 300.712, 190.087 302.175, 189.972 303 C 189.857 303.825, 189.816 305.255, 189.882 306.179 C 189.947 307.102, 190.707 308.564, 191.571 309.429 C 192.436 310.293, 194.166 311, 195.416 311 C 196.667 311, 198.435 310.177, 199.345 309.171 C 200.255 308.165, 201 305.985, 201 304.326 C 201 302.667, 200.177 300.565, 199.171 299.655 C 198.165 298.745, 196.435 298, 195.326 298 C 194.217 298, 192.606 298.788, 191.745 299.750" stroke="none" fill="#ffffff" fill-rule="evenodd"/><path d="M 250.582 74.819 L 248.884 78.583 253.362 88.041 C 255.824 93.244, 259.805 101.990, 262.209 107.477 C 266.424 117.103, 266.698 117.465, 269.963 117.729 C 271.824 117.880, 274.203 118.778, 275.249 119.725 C 276.295 120.672, 277.849 122.628, 278.702 124.073 C 279.704 125.769, 281.184 126.742, 282.877 126.819 C 284.320 126.884, 287.975 127.156, 291 127.424 C 294.025 127.692, 299.650 128.124, 303.500 128.384 C 310.309 128.844, 310.565 128.776, 312.862 125.885 L 315.225 122.912 311.492 117.206 C 309.439 114.068, 306.990 110.600, 306.049 109.500 C 305.109 108.400, 300.159 103.317, 295.049 98.205 C 289.939 93.093, 283.093 87.101, 279.835 84.888 C 276.577 82.676, 270.155 79.063, 265.564 76.860 C 260.973 74.657, 256.606 72.762, 255.859 72.649 C 255.111 72.536, 254 72.131, 253.390 71.749 C 252.721 71.331, 251.604 72.552, 250.582 74.819 M 139 120.287 C 139 121.068, 140.125 122.922, 141.500 124.405 C 142.875 125.889, 144 127.324, 144 127.594 C 144 127.864, 144.461 128.628, 145.025 129.292 C 145.589 129.956, 148.785 134.662, 152.128 139.750 C 155.470 144.838, 158.608 149, 159.102 149 C 159.596 149, 160 149.480, 160 150.067 C 160 150.653, 161.183 152.685, 162.630 154.581 C 164.731 157.337, 165.541 157.796, 166.659 156.868 C 167.725 155.983, 168.700 155.998, 170.743 156.929 C 173.225 158.060, 173.633 157.901, 176.163 154.826 C 177.667 152.997, 179.483 150.375, 180.199 149 C 180.915 147.625, 182.012 146.050, 182.639 145.500 C 183.265 144.950, 186.528 140.748, 189.889 136.162 C 194.417 129.986, 195.772 127.415, 195.117 126.244 C 194.630 125.374, 193.167 124.542, 191.866 124.393 C 190.565 124.245, 186.575 123.851, 183 123.518 C 179.425 123.185, 174.475 122.723, 172 122.493 C 169.525 122.263, 165.025 121.855, 162 121.587 C 158.975 121.320, 153.387 120.859, 149.583 120.565 C 145.778 120.270, 141.841 119.767, 140.833 119.447 C 139.643 119.069, 139 119.364, 139 120.287 M 313.815 145.428 C 313.229 146.568, 311.828 148.512, 310.701 149.750 C 309.574 150.988, 309.016 152, 309.462 152 C 309.908 152, 309.059 153.213, 307.577 154.696 C 306.094 156.179, 302.882 160.251, 300.440 163.744 C 297.998 167.238, 296 170.476, 296 170.941 C 296 171.406, 295.347 172.037, 294.548 172.343 C 293.749 172.650, 293.260 173.710, 293.461 174.700 C 293.662 175.690, 295.265 179.650, 297.023 183.500 C 298.781 187.350, 301.821 193.875, 303.779 198 C 305.737 202.125, 309.625 210.648, 312.419 216.940 C 317.148 227.587, 317.736 228.441, 320.899 229.257 C 323.401 229.903, 324.515 229.787, 325.115 228.817 C 325.565 228.093, 326.818 223.654, 327.902 218.954 C 328.985 214.254, 330.408 206.379, 331.063 201.454 C 331.740 196.376, 332.023 187.738, 331.718 181.500 C 331.422 175.450, 330.262 166, 329.139 160.500 C 328.017 155, 326.514 148.925, 325.800 147 C 324.568 143.683, 324.249 143.496, 319.690 143.428 C 315.791 143.369, 314.678 143.748, 313.815 145.428 M 148.719 171.614 C 148.420 171.913, 144.874 172.356, 140.838 172.598 C 136.802 172.840, 130.575 173.279, 127 173.574 C 123.425 173.868, 119.713 174.181, 118.750 174.269 C 117.746 174.361, 117 175.248, 117 176.350 C 117 177.406, 115.856 179.331, 114.458 180.627 C 113.059 181.923, 110.747 183.276, 109.320 183.635 L 106.725 184.286 107.380 193.606 C 107.740 198.732, 108.311 204.304, 108.648 205.989 C 109.126 208.379, 109.660 208.925, 111.080 208.475 C 112.081 208.157, 114.233 208.586, 115.862 209.428 C 117.491 210.271, 119.763 212.155, 120.912 213.615 C 122.060 215.075, 123 217.279, 123 218.514 C 123 220.043, 123.917 221.137, 125.877 221.949 C 127.460 222.605, 129.372 223.268, 130.127 223.424 C 130.882 223.579, 133.300 224.502, 135.500 225.475 C 137.700 226.448, 139.950 227.314, 140.500 227.400 C 141.050 227.486, 141.950 227.836, 142.500 228.177 C 143.050 228.518, 147.645 230.415, 152.711 232.392 L 161.923 235.987 164.416 233.493 C 166.153 231.756, 168.004 231, 170.520 231 C 172.506 231, 174.997 231.463, 176.055 232.030 C 177.114 232.596, 178.659 234.374, 179.490 235.980 C 180.320 237.586, 181 239.936, 181.001 241.200 C 181.002 243.176, 182.288 243.993, 190.136 247 C 195.159 248.925, 199.546 250.541, 199.885 250.590 C 200.223 250.640, 202.300 251.482, 204.500 252.462 C 206.700 253.442, 208.950 254.323, 209.500 254.420 C 210.050 254.517, 211.483 255.137, 212.684 255.798 C 213.886 256.459, 215.743 257, 216.812 257 C 217.881 257, 219.222 256.438, 219.792 255.750 C 220.362 255.063, 222.554 254.551, 224.664 254.613 C 228.176 254.717, 228.814 254.295, 232.218 249.613 C 234.263 246.801, 235.950 243.938, 235.968 243.250 C 235.985 242.563, 236.363 242, 236.807 242 C 237.251 242, 239.812 238.963, 242.498 235.250 C 245.184 231.537, 250.402 224.438, 254.093 219.474 L 260.804 210.447 259.542 205.474 C 258.847 202.738, 257.766 200.444, 257.139 200.375 C 256.513 200.306, 255.775 200.137, 255.500 200 C 255.225 199.863, 254.550 199.637, 254 199.500 C 253.450 199.363, 252.775 199.137, 252.500 199 C 252.225 198.863, 251.662 198.653, 251.250 198.535 C 250.838 198.416, 248.825 197.571, 246.777 196.657 C 244.729 195.743, 242.254 194.839, 241.277 194.648 C 240.300 194.457, 238.600 193.937, 237.500 193.492 C 236.400 193.047, 233.475 191.906, 231 190.955 C 228.525 190.004, 226.162 189.175, 225.750 189.113 C 225.338 189.051, 224.775 188.944, 224.500 188.875 C 224.225 188.806, 223.662 188.655, 223.250 188.539 C 222.838 188.422, 221.825 188.033, 221 187.673 C 220.175 187.313, 214.487 185.239, 208.361 183.065 C 202.234 180.891, 196.947 179.386, 196.611 179.722 C 196.275 180.058, 196 179.867, 196 179.297 C 196 178.726, 193.863 177.650, 191.250 176.904 C 188.637 176.158, 186.162 175.481, 185.750 175.399 C 185.338 175.317, 184.775 175.137, 184.500 175 C 184.225 174.863, 183.587 174.694, 183.083 174.625 C 182.579 174.556, 181.829 174.162, 181.417 173.750 C 181.004 173.338, 180.071 173, 179.342 173 C 178.613 173, 176.776 174.272, 175.259 175.826 C 173.020 178.119, 171.768 178.599, 168.616 178.374 C 166.278 178.207, 163.790 177.212, 162.366 175.874 C 161.065 174.651, 160 173.134, 160 172.502 C 160 171.797, 157.926 171.299, 154.631 171.212 C 151.678 171.134, 149.018 171.315, 148.719 171.614 M 66.374 230.500 C 66.376 236.550, 66.541 238.896, 66.740 235.713 C 66.939 232.531, 66.937 227.581, 66.736 224.713 C 66.535 221.846, 66.372 224.450, 66.374 230.500" stroke="none" fill="#5fccf6" fill-rule="evenodd"/><path d="M 363.973 32.668 C 362.613 33.586, 361.336 34.463, 361.135 34.617 C 360.934 34.771, 362.419 37.845, 364.434 41.449 L 368.098 48.001 371.299 46.373 C 373.060 45.478, 374.634 44.631, 374.799 44.491 C 374.963 44.350, 373.629 41.258, 371.834 37.618 C 370.039 33.978, 368.092 31, 367.508 31 C 366.923 31, 365.332 31.751, 363.973 32.668 M 333.900 36.880 L 331.579 38.759 334.340 42.380 C 335.859 44.371, 337.416 45.986, 337.801 45.968 C 338.185 45.951, 339.333 45.305, 340.351 44.534 C 342.140 43.179, 342.126 42.996, 339.917 39.066 C 338.660 36.830, 337.314 35, 336.927 35 C 336.539 35, 335.177 35.846, 333.900 36.880 M 192.838 44.124 C 186.974 44.508, 179.549 45.359, 176.338 46.015 C 173.127 46.671, 166.225 48.564, 161 50.221 C 155.775 51.878, 147 55.397, 141.500 58.040 C 136 60.683, 128.350 64.961, 124.500 67.546 C 120.650 70.132, 114.492 74.694, 110.815 77.684 C 107.138 80.674, 100.064 87.256, 95.094 92.310 C 90.125 97.365, 82.741 105.898, 78.687 111.273 C 74.632 116.649, 68.542 125.890, 65.153 131.811 C 61.765 137.731, 57.022 147.058, 54.614 152.537 C 52.206 158.017, 48.833 166.775, 47.118 172 C 45.404 177.225, 43.126 185.550, 42.058 190.500 C 40.990 195.450, 39.443 204.675, 38.621 211 C 37.799 217.325, 36.837 227.113, 36.483 232.750 C 35.922 241.697, 36.041 243, 37.420 243 C 38.723 243, 39.002 241.643, 39.009 235.250 C 39.013 230.988, 39.301 225.137, 39.648 222.250 L 40.279 217 44.514 217 C 46.844 217, 50.044 217.258, 51.625 217.573 L 54.500 218.146 54.192 230.007 L 53.884 241.867 59.692 241.296 C 62.887 240.981, 65.552 240.674, 65.615 240.612 C 65.679 240.550, 65.979 234.313, 66.282 226.750 L 66.832 213 63.475 213 C 61.629 213, 59.843 212.554, 59.506 212.010 C 59.169 211.465, 59.445 207.415, 60.120 203.011 L 61.346 195.003 65.284 195.251 L 69.222 195.500 71.633 185.573 C 73.265 178.856, 73.701 175.433, 72.983 174.990 C 72.241 174.531, 72.236 173.510, 72.967 171.586 C 73.542 170.074, 74.572 169.043, 75.256 169.294 C 75.940 169.545, 76.421 170.144, 76.324 170.625 C 76.227 171.106, 75.860 172.239, 75.508 173.142 C 75.018 174.402, 75.931 175.190, 79.434 176.528 C 81.945 177.487, 83.992 178.773, 83.983 179.386 C 83.974 179.999, 83.132 184.550, 82.112 189.500 L 80.258 198.500 76.879 198.102 C 75.021 197.884, 72.600 197.659, 71.500 197.602 C 69.750 197.513, 69.389 198.409, 68.608 204.775 C 68.118 208.776, 67.893 212.218, 68.108 212.424 C 68.324 212.629, 72.342 213.113, 77.037 213.499 L 85.573 214.201 87.309 201.602 C 88.264 194.672, 90.621 183.528, 92.547 176.838 C 94.472 170.147, 98.132 160.242, 100.680 154.826 C 103.227 149.410, 105.444 145.111, 105.606 145.273 C 105.768 145.434, 104.754 149.377, 103.354 154.033 C 101.954 158.690, 100.024 164.525, 99.065 167 C 97.523 170.983, 97.403 173.800, 98.019 191.500 C 98.568 207.277, 99.182 213.283, 100.928 219.944 C 102.146 224.588, 104.934 232.913, 107.125 238.444 C 109.316 243.975, 112.279 250.499, 113.710 252.943 C 115.140 255.387, 119.053 261.227, 122.405 265.921 C 125.757 270.615, 132.775 278.745, 138 283.986 C 143.225 289.228, 151.550 296.268, 156.500 299.631 C 161.450 302.995, 169.550 307.776, 174.500 310.256 C 179.450 312.737, 187.602 316.140, 192.616 317.819 C 197.630 319.498, 205.505 321.608, 210.116 322.508 C 214.727 323.408, 224.004 324.402, 230.731 324.717 C 238.150 325.064, 246.608 324.806, 252.231 324.061 C 257.329 323.386, 265.100 321.936, 269.500 320.840 C 273.900 319.743, 282.092 317.055, 287.704 314.865 C 293.316 312.676, 302.663 308.028, 308.475 304.538 C 314.287 301.047, 322.295 295.583, 326.271 292.396 C 330.247 289.208, 336.594 283.652, 340.375 280.050 C 344.156 276.447, 350.756 269.185, 355.043 263.912 C 359.329 258.639, 365.259 250.539, 368.221 245.912 C 371.182 241.285, 374.984 235.025, 376.670 232 C 378.355 228.975, 381.993 221.310, 384.755 214.967 C 387.517 208.623, 390.916 199.825, 392.309 195.414 C 393.703 191.004, 395.964 182.019, 397.334 175.448 C 398.704 168.876, 400.301 159.450, 400.883 154.500 C 401.464 149.550, 402.232 141.113, 402.589 135.750 C 403.134 127.557, 403.004 126, 401.773 126 C 400.602 126, 400.176 128.450, 399.651 138.202 C 399.290 144.914, 398.659 150.706, 398.248 151.074 C 397.836 151.442, 394.688 151.522, 391.250 151.251 L 385 150.760 385 138.880 L 385 127 380.750 127.014 C 378.413 127.021, 375.600 127.271, 374.500 127.570 C 372.624 128.079, 372.500 128.960, 372.500 141.806 L 372.500 155.500 376.250 155.810 C 379.042 156.041, 380 156.569, 380 157.877 C 380 158.842, 379.529 162.303, 378.954 165.566 C 378.379 168.830, 377.734 172.022, 377.520 172.660 C 377.252 173.462, 376.012 173.567, 373.500 173 C 370.981 172.432, 369.769 172.536, 369.545 173.340 C 369.368 173.978, 368.282 178.515, 367.133 183.423 C 365.803 189.102, 365.383 192.757, 365.980 193.475 C 366.495 194.096, 366.658 195.593, 366.342 196.802 C 366.010 198.071, 364.982 199, 363.908 199 C 362.326 199, 362.195 198.618, 363.025 196.435 C 363.561 195.024, 364 193.723, 364 193.543 C 364 193.364, 362.895 192.939, 361.544 192.600 C 360.193 192.261, 358.015 191.576, 356.704 191.078 L 354.320 190.171 356.500 180.389 C 357.699 175.009, 359.139 170.454, 359.700 170.267 C 360.261 170.080, 362.555 170.339, 364.799 170.843 C 367.779 171.513, 369.003 171.435, 369.341 170.554 C 369.595 169.891, 370.121 166.380, 370.510 162.752 L 371.216 156.155 366.358 155.540 C 363.686 155.202, 359.651 154.699, 357.392 154.423 L 353.284 153.920 352.599 160.710 C 352.222 164.445, 351.013 171.946, 349.912 177.380 C 348.810 182.813, 346.523 191.588, 344.829 196.880 C 343.135 202.171, 340.034 210.213, 337.939 214.750 C 335.844 219.288, 333.895 223, 333.609 223 C 333.323 223, 333.771 221.088, 334.604 218.750 C 335.438 216.412, 337.024 210.900, 338.128 206.500 C 339.532 200.909, 340.297 193.682, 340.669 182.500 C 341.072 170.365, 340.807 164.106, 339.572 156.587 C 338.677 151.135, 336.785 143.260, 335.369 139.087 C 333.953 134.914, 330.878 127.450, 328.536 122.500 C 326.195 117.550, 321.403 109.461, 317.889 104.524 C 314.375 99.588, 308.125 91.987, 304 87.633 C 299.875 83.279, 293.575 77.384, 290 74.533 C 286.425 71.682, 280.908 67.699, 277.741 65.682 C 274.573 63.664, 268.307 60.166, 263.817 57.908 C 259.326 55.650, 251.118 52.326, 245.576 50.521 C 240.034 48.716, 231.225 46.530, 226 45.663 C 220.775 44.796, 213.575 43.938, 210 43.756 C 206.425 43.574, 198.702 43.740, 192.838 44.124 M 364.213 50.847 C 363.194 51.494, 363.347 52.643, 364.947 56.376 C 366.795 60.688, 367.147 60.992, 369.091 59.951 C 370.259 59.326, 371.592 59.194, 372.054 59.657 C 372.515 60.121, 374.541 65.450, 376.556 71.500 C 378.571 77.550, 380.366 82.658, 380.545 82.852 C 380.724 83.045, 383.262 82.423, 386.185 81.469 C 389.108 80.514, 391.811 79.559, 392.190 79.345 C 392.570 79.131, 392.502 77.728, 392.040 76.228 C 391.577 74.728, 389.747 68.888, 387.973 63.250 C 386.198 57.612, 384.339 53, 383.840 53 C 383.341 53, 380.713 54.125, 378 55.500 C 375.287 56.875, 372.650 58, 372.142 58 C 371.633 58, 370.497 56.200, 369.617 54 C 368.736 51.800, 367.450 50.007, 366.758 50.015 C 366.066 50.024, 364.921 50.398, 364.213 50.847 M 336.523 61.360 C 334.723 62.675, 334.736 62.837, 336.913 66.360 C 338.151 68.362, 339.490 70, 339.890 70 C 340.290 70, 341.415 69.417, 342.390 68.704 C 344.085 67.465, 344.085 67.247, 342.396 63.704 C 341.424 61.667, 340.124 60, 339.506 60 C 338.888 60, 337.546 60.612, 336.523 61.360 M 239.303 63.207 C 238.094 63.785, 236.649 65.567, 236.092 67.167 C 235.389 69.183, 235.412 70.811, 236.168 72.470 C 236.769 73.787, 238.510 75.383, 240.039 76.016 C 242.084 76.863, 243.365 76.875, 244.886 76.061 C 246.024 75.452, 247.414 74.094, 247.977 73.043 C 248.540 71.992, 249 70.252, 249 69.177 C 249 68.101, 248.213 66.311, 247.250 65.198 C 246.287 64.085, 244.600 62.945, 243.500 62.664 C 242.400 62.384, 240.511 62.628, 239.303 63.207 M 350.195 64.795 C 346.518 66.647, 345.041 67.933, 345.385 68.984 C 345.658 69.818, 347.371 74.230, 349.191 78.788 C 352.336 86.666, 352.634 87.051, 355.197 86.574 C 356.680 86.297, 359.491 85.404, 361.444 84.588 L 364.995 83.104 362.479 76.131 C 361.096 72.295, 359.291 67.547, 358.468 65.579 C 357.646 63.610, 356.642 62.027, 356.237 62.061 C 355.831 62.094, 353.113 63.325, 350.195 64.795 M 204.814 67.078 C 201.687 67.537, 196.287 68.639, 192.814 69.526 C 189.341 70.414, 182.675 72.753, 178 74.723 C 173.325 76.694, 165.675 80.774, 161 83.790 C 156.325 86.806, 149.072 92.608, 144.881 96.683 L 137.262 104.092 139.131 107.757 C 140.159 109.773, 141 112.141, 141 113.019 C 141 114.375, 144.188 114.875, 162.250 116.355 C 173.938 117.312, 185.577 118.349, 188.115 118.659 C 192.669 119.214, 192.754 119.171, 194.615 115.369 C 195.652 113.250, 197.625 110.938, 199 110.231 C 200.439 109.491, 203.197 109.161, 205.500 109.452 L 209.500 109.959 221.478 93.729 C 228.973 83.573, 233.357 76.752, 233.193 75.500 C 233.049 74.400, 232.834 72.150, 232.715 70.500 C 232.597 68.850, 231.825 67.194, 231 66.820 C 230.175 66.446, 225.225 66.164, 220 66.192 C 214.775 66.221, 207.941 66.619, 204.814 67.078 M 250.566 74.855 L 248.884 78.583 253.362 88.041 C 255.824 93.244, 259.805 101.990, 262.209 107.477 C 266.459 117.182, 266.673 117.462, 270.039 117.714 C 272.383 117.889, 274.307 118.893, 276 120.822 C 277.375 122.390, 278.950 124.390, 279.500 125.267 C 280.258 126.476, 283.446 127.121, 292.672 127.931 C 299.367 128.519, 306.117 128.975, 307.672 128.945 C 309.574 128.907, 311.270 127.916, 312.849 125.917 L 315.198 122.944 310.849 116.222 C 308.457 112.525, 302 104.965, 296.500 99.423 C 291 93.880, 283.800 87.530, 280.500 85.310 C 277.200 83.090, 271.687 79.855, 268.248 78.122 C 264.810 76.388, 259.803 74.105, 257.122 73.048 L 252.247 71.126 250.566 74.855 M 234.880 83.250 C 233.638 85.037, 229.481 90.775, 225.641 96 C 221.801 101.225, 217.297 107.272, 215.631 109.438 C 213.542 112.156, 212.675 114.320, 212.835 116.422 C 212.963 118.097, 213.390 119.782, 213.784 120.166 C 214.178 120.550, 222.375 121.568, 232 122.429 C 241.625 123.289, 251.798 124.244, 254.606 124.551 C 259.513 125.086, 259.760 124.995, 260.915 122.206 C 261.992 119.606, 261.705 118.376, 258.163 110.402 C 255.989 105.506, 252.025 96.666, 249.355 90.757 L 244.500 80.015 240.818 80.007 C 237.790 80.001, 236.736 80.577, 234.880 83.250 M 347.849 89.695 L 344.197 91.196 346.242 97.348 C 347.366 100.732, 348.359 103.600, 348.449 103.723 C 348.539 103.845, 350.275 103.487, 352.306 102.926 C 354.338 102.365, 356 101.682, 356 101.409 C 356 101.135, 355.270 98.006, 354.378 94.456 C 353.487 90.905, 352.474 88.044, 352.128 88.097 C 351.783 88.151, 349.857 88.870, 347.849 89.695 M 336.500 99.666 C 333.750 100.505, 331.371 101.315, 331.214 101.465 C 331.057 101.615, 331.957 105.433, 333.214 109.949 L 335.500 118.160 341 117.483 C 344.025 117.111, 346.668 116.645, 346.873 116.447 C 347.078 116.250, 346.240 112.018, 345.011 107.044 C 343.782 102.070, 342.489 98.031, 342.138 98.070 C 341.787 98.108, 339.250 98.826, 336.500 99.666 M 377.564 101.897 C 377.259 102.390, 377.294 104.865, 377.641 107.397 C 378.126 110.935, 378.690 112, 380.077 112 C 381.070 112, 382.161 111.549, 382.502 110.997 C 382.843 110.445, 382.818 107.970, 382.447 105.497 C 381.931 102.054, 381.345 101, 379.945 101 C 378.940 101, 377.869 101.403, 377.564 101.897 M 126.455 108.455 C 125.105 109.805, 124 111.859, 124 113.020 C 124 114.181, 124.477 116.023, 125.061 117.114 C 125.644 118.204, 127.221 119.514, 128.565 120.025 C 130.164 120.633, 131.847 120.571, 133.436 119.847 C 134.772 119.238, 136.366 117.532, 136.978 116.054 C 137.742 114.208, 137.778 112.547, 137.093 110.745 C 136.545 109.302, 135.204 107.644, 134.114 107.061 C 133.023 106.477, 131.406 106, 130.520 106 C 129.634 106, 127.805 107.105, 126.455 108.455 M 198.557 115.223 C 197.701 116.445, 197 118.695, 197 120.223 C 197 121.750, 197.900 123.900, 199 125 C 200.100 126.100, 202.040 127, 203.311 127 C 204.583 127, 206.608 126.082, 207.811 124.961 C 209.111 123.750, 210 121.719, 210 119.961 C 210 118.332, 209.100 116.100, 208 115 C 206.900 113.900, 204.676 113, 203.057 113 C 201.149 113, 199.566 113.782, 198.557 115.223 M 355.749 115.447 C 352.035 116.119, 348.733 116.934, 348.410 117.257 C 348.086 117.580, 348.312 121.003, 348.911 124.864 C 349.510 128.724, 350 134.561, 350 137.835 C 350 142.339, 350.385 143.934, 351.582 144.393 C 352.452 144.727, 356.052 145, 359.582 145 L 366 145 366 135.647 C 366 130.502, 365.711 123.527, 365.358 120.147 C 364.986 116.588, 364.249 114.047, 363.608 114.112 C 362.998 114.174, 359.462 114.774, 355.749 115.447 M 139 120.147 C 139 120.709, 141.276 124.394, 144.058 128.335 C 146.840 132.276, 152.630 140.450, 156.925 146.500 L 164.733 157.500 169.462 157.464 L 174.190 157.428 185.079 142.619 C 194.214 130.196, 195.804 127.503, 194.949 125.905 C 194.388 124.857, 193.328 124, 192.592 124 C 191.856 124, 180.959 123.103, 168.377 122.006 C 155.795 120.909, 144.037 119.813, 142.250 119.569 C 140.415 119.319, 139 119.571, 139 120.147 M 265.189 123.039 C 263.790 124.342, 263 126.271, 263 128.384 C 263 130.317, 263.760 132.377, 264.829 133.345 C 265.835 134.255, 268.059 135, 269.772 135 C 271.857 135, 273.401 134.265, 274.443 132.777 C 275.299 131.555, 276 129.384, 276 127.952 C 276 126.520, 274.958 124.370, 273.686 123.174 C 272.413 121.978, 270.472 121, 269.374 121 C 268.276 121, 266.392 121.918, 265.189 123.039 M 393.250 121.651 C 392.449 121.981, 392 124.292, 392 128.083 L 392 134 395.048 134 L 398.095 134 397.798 127.760 C 397.576 123.121, 397.115 121.471, 396 121.327 C 395.175 121.222, 393.938 121.367, 393.250 121.651 M 119.971 130.767 C 117.648 135.570, 114.881 141.975, 113.822 145 C 112.763 148.025, 111.290 153.065, 110.549 156.201 C 109.203 161.891, 109.205 161.904, 111.831 163.625 C 113.278 164.573, 115.145 166.177, 115.981 167.190 C 117.440 168.958, 118.232 168.971, 135.977 167.516 C 146.140 166.682, 155.405 166, 156.567 166 C 157.848 166, 159.126 165.019, 159.816 163.505 C 160.836 161.265, 160.418 160.240, 155.726 153.481 C 152.852 149.340, 147.238 141.359, 143.250 135.744 C 139.262 130.130, 136 125.191, 136 124.768 C 136 124.346, 134.170 124, 131.934 124 C 129.698 124, 127.042 123.558, 126.031 123.017 C 124.419 122.154, 123.677 123.103, 119.971 130.767 M 211 126.886 C 211 127.373, 209.466 128.500, 207.590 129.390 C 205.715 130.280, 203.277 130.894, 202.174 130.754 C 200.631 130.559, 197.497 134.080, 188.607 146 C 180.017 157.519, 177.197 162.014, 177.631 163.500 C 177.952 164.600, 178.729 166.040, 179.357 166.700 C 179.986 167.361, 190.850 171.545, 203.500 175.998 C 216.150 180.452, 234.222 186.818, 243.660 190.144 L 260.820 196.193 263.846 193.955 C 266.061 192.318, 267.762 191.853, 270.187 192.223 C 273.387 192.712, 273.732 192.411, 280.319 183.370 C 285.738 175.933, 286.994 173.549, 286.437 171.756 C 286.051 170.515, 283.846 165.675, 281.537 161 C 279.227 156.325, 276.069 149.463, 274.519 145.750 C 271.949 139.596, 271.441 139, 268.773 139 C 266.871 139, 264.822 137.976, 262.923 136.077 C 261.315 134.469, 260 132.444, 260 131.577 C 260 130.710, 259.887 129.995, 259.750 129.988 C 259.613 129.982, 249.600 129.087, 237.500 128 C 225.400 126.913, 214.488 126.018, 213.250 126.012 C 212.012 126.005, 211 126.399, 211 126.886 M 315.573 127.570 C 314.709 128.433, 313.728 130.237, 313.391 131.577 C 313.017 133.067, 313.410 134.977, 314.402 136.491 C 315.295 137.854, 317.144 139.249, 318.510 139.592 C 319.877 139.935, 321.645 139.966, 322.439 139.662 C 323.234 139.357, 324.634 137.962, 325.552 136.561 C 326.582 134.989, 326.986 133.082, 326.609 131.577 C 326.272 130.237, 325.291 128.433, 324.427 127.570 C 323.564 126.706, 321.571 126, 320 126 C 318.429 126, 316.436 126.706, 315.573 127.570 M 277.600 134.488 C 275.816 137.210, 275.833 137.286, 280.302 146.864 C 282.775 152.164, 285.818 158.975, 287.063 162 C 288.308 165.025, 289.641 167.865, 290.024 168.310 C 290.407 168.756, 293.112 165.831, 296.035 161.810 C 298.957 157.790, 303.784 151.200, 306.761 147.166 C 311.765 140.386, 312.087 139.624, 311.025 137.059 C 309.928 134.413, 309.477 134.255, 301.188 133.622 C 296.410 133.257, 289.551 132.687, 285.947 132.354 C 279.616 131.770, 279.334 131.842, 277.600 134.488 M 313.875 145.234 C 313.285 146.335, 310.759 149.924, 308.261 153.208 C 305.764 156.493, 301.273 162.591, 298.282 166.760 L 292.844 174.339 296.535 182.420 C 298.566 186.864, 303.048 196.575, 306.495 204 C 309.943 211.425, 313.886 220.020, 315.258 223.100 C 317.395 227.898, 318.226 228.795, 321.060 229.362 C 323.265 229.803, 324.628 229.603, 325.150 228.762 C 325.580 228.068, 326.818 223.654, 327.902 218.954 C 328.985 214.254, 330.408 206.379, 331.063 201.454 C 331.733 196.424, 332.025 187.680, 331.730 181.500 C 331.441 175.450, 330.481 166.900, 329.596 162.500 C 328.711 158.100, 327.269 151.998, 326.392 148.939 L 324.798 143.379 319.873 143.305 C 315.922 143.245, 314.735 143.627, 313.875 145.234 M 164 163 C 162.900 164.100, 162 166.064, 162 167.365 C 162 168.666, 162.933 170.916, 164.073 172.365 C 165.313 173.943, 167.138 175, 168.618 175 C 169.978 175, 172.195 173.895, 173.545 172.545 C 174.895 171.195, 176 169.231, 176 168.180 C 176 167.129, 175.067 165.084, 173.927 163.635 C 172.532 161.860, 170.899 161, 168.927 161 C 167.317 161, 165.100 161.900, 164 163 M 103 168 C 101.889 169.111, 101 171.333, 101 173 C 101 174.667, 101.889 176.889, 103 178 C 104.100 179.100, 106.125 180, 107.500 180 C 108.875 180, 110.900 179.100, 112 178 C 113.111 176.889, 114 174.667, 114 173 C 114 171.333, 113.111 169.111, 112 168 C 110.900 166.900, 108.875 166, 107.500 166 C 106.125 166, 104.100 166.900, 103 168 M 136 172.554 C 128.575 173.259, 121.263 173.873, 119.750 173.918 C 117.768 173.977, 117 174.518, 117 175.854 C 117 176.874, 115.913 178.880, 114.585 180.314 C 113.257 181.747, 110.945 183.227, 109.448 183.602 L 106.725 184.286 107.380 193.606 C 107.740 198.732, 108.308 204.292, 108.643 205.963 C 109.179 208.647, 109.654 209, 112.725 209 C 115.344 209, 117.038 209.838, 119.600 212.400 C 121.674 214.474, 123 216.786, 123 218.328 C 123 220.460, 123.823 221.167, 128.250 222.836 C 131.137 223.924, 139.893 227.330, 147.707 230.405 L 161.914 235.995 164.412 233.497 C 166.153 231.756, 168.003 231, 170.520 231 C 172.506 231, 174.997 231.463, 176.055 232.030 C 177.114 232.596, 178.659 234.374, 179.490 235.980 C 180.320 237.586, 181.005 239.936, 181.011 241.200 C 181.021 243.249, 182.912 244.237, 198.323 250.250 C 207.838 253.963, 216.356 257, 217.253 257 C 218.149 257, 219.160 256.550, 219.500 256 C 219.840 255.450, 222.004 254.990, 224.309 254.979 C 228.100 254.959, 228.778 254.554, 231.416 250.729 C 233.020 248.403, 237.273 242.450, 240.869 237.500 C 244.464 232.550, 250.420 224.438, 254.105 219.474 L 260.804 210.447 259.560 205.546 L 258.316 200.646 219.408 186.873 C 198.009 179.298, 179.761 173.078, 178.857 173.050 C 177.953 173.023, 176.947 173.695, 176.621 174.545 C 176.295 175.395, 174.518 176.721, 172.672 177.493 C 170.826 178.264, 168.232 178.632, 166.908 178.310 C 165.583 177.987, 163.488 176.808, 162.250 175.688 C 161.012 174.568, 160 173.055, 160 172.326 C 160 171.376, 158.511 171.038, 154.750 171.135 C 151.863 171.210, 143.425 171.848, 136 172.554 M 283.189 187.475 C 278.159 194.527, 277.192 196.490, 278.003 198.006 C 278.551 199.030, 279 201.045, 279 202.484 C 279 203.922, 278.320 206.414, 277.490 208.020 C 276.659 209.626, 275.016 211.456, 273.839 212.086 C 272.662 212.716, 270.007 213.208, 267.940 213.180 C 264.607 213.134, 263.870 213.603, 261.435 217.314 C 259.925 219.616, 255.691 225.550, 252.027 230.500 C 248.363 235.450, 242.356 243.604, 238.679 248.620 L 231.993 257.739 233.447 261.218 C 234.740 264.313, 235.851 265.056, 243.505 267.944 C 248.237 269.730, 256.384 272.880, 261.609 274.943 L 271.109 278.695 275.022 276.759 C 278.266 275.154, 279.499 275.010, 282.237 275.913 C 284.053 276.512, 286.232 278.146, 287.080 279.544 L 288.622 282.085 293.432 277.851 C 296.078 275.522, 301.299 269.819, 305.035 265.177 C 308.770 260.535, 312.606 255.290, 313.558 253.523 C 315.240 250.398, 315.226 250.224, 313.025 247.248 C 311.517 245.208, 310.780 242.841, 310.817 240.155 C 310.848 237.938, 311.574 235.054, 312.430 233.746 C 313.901 231.502, 313.760 230.899, 309.889 222.935 C 307.635 218.296, 303.427 209.100, 300.538 202.500 C 297.649 195.900, 293.955 187.869, 292.329 184.653 L 289.372 178.807 283.189 187.475 M 264.573 197.570 C 263.709 198.433, 262.728 200.237, 262.391 201.577 C 262.017 203.067, 262.410 204.977, 263.402 206.491 C 264.295 207.854, 266.148 209.250, 267.520 209.594 C 269.048 209.978, 270.932 209.619, 272.384 208.668 C 273.688 207.814, 275.046 205.955, 275.401 204.537 C 275.757 203.119, 275.520 200.956, 274.874 199.729 C 274.229 198.503, 273.205 197.169, 272.600 196.765 C 271.995 196.361, 270.295 196.024, 268.821 196.015 C 267.348 196.007, 265.436 196.706, 264.573 197.570 M 108 215 C 106.900 216.100, 106 218.272, 106 219.826 C 106 221.486, 106.954 223.548, 108.314 224.826 C 109.587 226.022, 111.563 227, 112.704 227 C 113.845 227, 115.755 226.209, 116.949 225.242 C 118.316 224.136, 119.154 222.282, 119.212 220.239 C 119.265 218.400, 118.521 216.128, 117.497 214.997 C 116.498 213.892, 114.419 213, 112.845 213 C 111.280 213, 109.100 213.900, 108 215 M 73.184 238.476 C 73.423 246.438, 73.913 253.246, 74.271 253.604 C 74.630 253.963, 78.591 253.686, 83.074 252.988 L 91.226 251.720 90.589 247.610 C 90.239 245.350, 89.673 239.113, 89.331 233.750 L 88.709 224 80.729 224 L 72.748 224 73.184 238.476 M 118.289 228.344 C 116.522 229.530, 115.066 230.950, 115.053 231.500 C 115.040 232.050, 117.258 237.135, 119.982 242.801 C 122.707 248.466, 128.104 257.316, 131.976 262.468 C 135.848 267.619, 142.275 274.736, 146.258 278.281 C 150.241 281.827, 156.533 286.791, 160.239 289.313 C 163.946 291.835, 170.246 295.439, 174.239 297.322 C 178.233 299.205, 182.476 301.047, 183.669 301.415 C 185.310 301.921, 185.995 301.592, 186.478 300.068 C 186.830 298.959, 188.277 297.140, 189.694 296.026 C 191.242 294.808, 193.768 294, 196.025 294 C 199.643 294, 200.068 293.607, 207.757 283.149 C 215.692 272.356, 215.732 272.270, 215.243 267.180 L 214.752 262.063 197.164 255.175 L 179.577 248.286 176.539 250.139 C 174.867 251.159, 172.087 251.994, 170.361 251.996 C 168.634 251.998, 166.275 251.213, 165.119 250.250 C 163.963 249.287, 162.432 246.779, 161.719 244.676 C 160.423 240.858, 160.390 240.840, 141.546 233.426 C 131.165 229.342, 122.408 226.042, 122.086 226.094 C 121.764 226.146, 120.055 227.159, 118.289 228.344 M 316 235 C 314.900 236.100, 313.947 237.787, 313.882 238.750 C 313.816 239.713, 313.857 241.175, 313.972 242 C 314.087 242.825, 314.885 244.287, 315.745 245.250 C 316.635 246.245, 318.729 247, 320.598 247 C 322.863 247, 324.371 246.308, 325.443 244.777 C 326.299 243.555, 327 241.323, 327 239.816 C 327 238.287, 326.034 236.178, 324.811 235.039 C 323.608 233.918, 321.583 233, 320.311 233 C 319.040 233, 317.100 233.900, 316 235 M 41.667 234.667 C 41.300 235.033, 41 237.958, 41 241.167 C 41 246.981, 41.010 247, 44 247 L 47 247 47 240.500 C 47 234.357, 46.872 234, 44.667 234 C 43.383 234, 42.033 234.300, 41.667 234.667 M 166.455 236.455 C 165.105 237.805, 164 239.859, 164 241.020 C 164 242.181, 164.477 244.023, 165.061 245.114 C 165.644 246.204, 167.221 247.514, 168.565 248.025 C 170.155 248.629, 171.841 248.574, 173.394 247.866 C 174.706 247.269, 176.279 245.683, 176.890 244.343 C 177.500 243.002, 178 241.232, 178 240.407 C 178 239.583, 176.895 237.805, 175.545 236.455 C 174.195 235.105, 172.150 234, 171 234 C 169.850 234, 167.805 235.105, 166.455 236.455 M 97.112 251.081 C 94.698 251.555, 92.520 252.146, 92.271 252.395 C 92.023 252.644, 92.756 256.553, 93.902 261.082 C 95.047 265.612, 96.199 269.532, 96.462 269.795 C 96.725 270.058, 99.316 269.612, 102.220 268.804 C 105.124 267.996, 107.488 266.922, 107.474 266.418 C 107.460 265.913, 106.590 262.012, 105.541 257.750 C 104.492 253.488, 103.154 250.049, 102.567 250.110 C 101.980 250.170, 99.525 250.607, 97.112 251.081 M 58.132 256.835 C 55.887 257.153, 55.800 257.435, 56.448 262.317 C 56.823 265.148, 57.233 267.567, 57.359 267.692 C 57.485 267.818, 58.580 267.661, 59.794 267.344 C 61.410 266.921, 61.968 266.062, 61.882 264.133 C 61.817 262.685, 61.479 260.375, 61.132 259 C 60.644 257.071, 59.960 256.576, 58.132 256.835 M 220.635 260.073 C 218.747 261.557, 218 263.073, 218 265.418 C 218 267.402, 218.774 269.391, 219.967 270.470 C 221.049 271.449, 223.089 272.250, 224.500 272.250 C 225.911 272.250, 227.951 271.449, 229.033 270.470 C 230.233 269.384, 231 267.401, 231 265.384 C 231 263.271, 230.210 261.342, 228.811 260.039 C 227.608 258.918, 225.868 258, 224.946 258 C 224.024 258, 222.084 258.933, 220.635 260.073 M 85.250 265.706 C 84.013 265.944, 83.005 266.670, 83.012 267.320 C 83.018 267.969, 83.665 270.909, 84.449 273.853 C 85.232 276.798, 86.097 279.430, 86.370 279.703 C 86.643 279.976, 88.471 279.670, 90.433 279.022 C 92.395 278.375, 94 277.286, 94 276.604 C 94 275.921, 93.308 273.031, 92.461 270.182 C 91.347 266.430, 90.450 265.038, 89.211 265.136 C 88.270 265.211, 86.487 265.467, 85.250 265.706 M 230.725 273.207 C 228.322 275.776, 227.360 276.130, 223.567 275.838 L 219.185 275.500 211.188 286.436 C 204.287 295.872, 203.315 297.698, 204.095 299.751 C 204.593 301.059, 205 303.179, 205 304.461 C 205 306.643, 205.496 306.836, 212.754 307.478 C 217.019 307.856, 224.823 307.684, 230.097 307.095 C 235.371 306.507, 243.649 304.878, 248.493 303.474 C 253.337 302.070, 260.633 299.382, 264.707 297.500 C 271.422 294.397, 272.013 293.893, 271.048 292.090 C 270.463 290.996, 269.864 288.622, 269.717 286.814 C 269.451 283.535, 269.400 283.505, 252.475 276.801 C 243.139 273.102, 235.050 270.113, 234.500 270.157 C 233.950 270.201, 232.251 271.574, 230.725 273.207 M 275 281 C 273.900 282.100, 272.947 283.788, 272.882 284.750 C 272.816 285.712, 272.857 287.175, 272.972 288 C 273.087 288.825, 273.885 290.288, 274.745 291.250 C 275.635 292.245, 277.729 293, 279.598 293 C 281.863 293, 283.371 292.308, 284.443 290.777 C 285.299 289.555, 286 287.323, 286 285.816 C 286 284.287, 285.034 282.178, 283.811 281.039 C 282.608 279.918, 280.583 279, 279.311 279 C 278.040 279, 276.100 279.900, 275 281 M 79.513 283.178 C 76.770 284.258, 74.393 285.274, 74.230 285.437 C 74.067 285.600, 75.779 290.510, 78.034 296.349 L 82.135 306.965 86.817 304.523 C 89.393 303.179, 92.068 301.694, 92.763 301.223 C 93.733 300.564, 93.113 298.183, 90.087 290.957 C 87.921 285.783, 85.777 281.474, 85.324 281.383 C 84.871 281.291, 82.256 282.099, 79.513 283.178 M 52.337 287.386 L 46.174 289.500 49.638 300.911 C 51.543 307.187, 53.544 313.148, 54.085 314.158 C 55.013 315.893, 55.392 315.831, 60.941 313.030 L 66.814 310.065 62.814 297.782 C 60.614 291.027, 58.743 285.449, 58.657 285.386 C 58.571 285.323, 55.727 286.223, 52.337 287.386 M 97.250 299.220 C 96.013 299.817, 95 300.709, 95 301.202 C 95 301.696, 95.732 303.539, 96.627 305.300 C 97.522 307.060, 98.384 308.649, 98.542 308.831 C 98.699 309.013, 99.880 308.615, 101.164 307.946 C 102.449 307.277, 103.644 306.609, 103.820 306.461 C 103.996 306.314, 103.199 304.350, 102.049 302.097 C 100.900 299.844, 99.856 298.030, 99.730 298.068 C 99.603 298.105, 98.487 298.624, 97.250 299.220 M 190.655 299.829 C 189.745 300.835, 189 303.067, 189 304.790 C 189 306.724, 189.837 308.702, 191.189 309.961 C 192.392 311.082, 194.132 312, 195.054 312 C 195.976 312, 197.916 311.067, 199.365 309.927 C 201.051 308.601, 202 306.881, 202 305.150 C 202 303.662, 201.299 301.445, 200.443 300.223 C 199.371 298.692, 197.863 298, 195.598 298 C 193.683 298, 191.619 298.763, 190.655 299.829 M 68.807 309.048 C 67.226 309.970, 67.239 310.315, 69 314.249 C 70.038 316.566, 71.268 318.589, 71.734 318.745 C 72.200 318.900, 73.401 318.427, 74.403 317.695 C 76.156 316.412, 76.145 316.204, 74.092 312.181 C 72.919 309.881, 71.631 308.014, 71.230 308.030 C 70.828 308.047, 69.738 308.505, 68.807 309.048 M 66.753 322.571 L 64.006 324.061 67.515 331.030 C 69.446 334.864, 71.288 338, 71.608 338 C 71.929 338, 73.484 337.080, 75.064 335.955 L 77.936 333.909 74.754 327.455 C 73.003 323.905, 71.105 321.018, 70.535 321.040 C 69.966 321.062, 68.264 321.751, 66.753 322.571 M 98.899 323.881 L 96.576 325.761 99.361 329.970 C 102.118 334.135, 102.168 334.159, 104.323 332.350 C 105.520 331.344, 106.679 330.412, 106.899 330.279 C 107.118 330.145, 106.044 328.228, 104.513 326.018 C 102.981 323.808, 101.614 322, 101.475 322 C 101.336 322, 100.176 322.846, 98.899 323.881" stroke="none" fill="#003a54" fill-rule="evenodd"/></svg>